<svg xmlns="http://www.w3.org/2000/svg" enable-background="new 0 0 64 64" viewBox="0 0 64 64" id="Gamedeveloper">
  <path fill="#fe9526" d="M37.54 9.45l6.48 3.89c.2.12.43.18.66.18.46 0 .87-.23 1.1-.62.36-.61.17-1.4-.44-1.76L40.7 8.35l4.63-2.75c.61-.36.81-1.15.45-1.76-.23-.39-.65-.63-1.11-.63-.23 0-.46.06-.65.18l-6.48 3.85c-.39.23-.63.65-.63 1.1C36.91 8.79 37.15 9.21 37.54 9.45zM55.58 5.6l4.63 2.75-4.64 2.79c-.61.36-.8 1.16-.44 1.76.23.39.65.62 1.1.62.23 0 .46-.06.66-.18l6.48-3.89C63.76 9.21 64 8.79 64 8.34c0-.45-.24-.87-.63-1.1l-6.48-3.85c-.2-.12-.42-.18-.65-.18-.45 0-.88.24-1.11.63C54.77 4.45 54.97 5.24 55.58 5.6zM48.07 14.61c.15.06.3.08.46.08.53 0 1.01-.33 1.2-.83l3.86-10.09c.12-.32.11-.67-.03-.98-.14-.31-.39-.55-.71-.68-.15-.06-.3-.08-.46-.08-.53 0-1.01.33-1.2.82l-3.86 10.09C47.07 13.61 47.41 14.36 48.07 14.61z" class="colorff0000 svgShape"></path>
  <path fill="#595bd4" d="M28.49,13.1c-0.03-0.03-0.1-0.08-0.21-0.08c-3.22,0.22-5.23-1.22-6.25-2.26c-1.63,1.41-5.37,3.98-10.26,3.21
		l-0.06,0.4c0,0.52-0.36,0.96-0.87,1.04c-0.38,0.08-0.91,0.6-1.21,1.61c-0.14,0.48-0.22,1-0.22,1.54c0,1.78,0.82,3.16,1.54,3.16
		c0.49,0,0.92,0.34,1.04,0.82c0.49,2.11,1.7,3.96,3.42,5.21c0.52,0.36,1.08,0.67,1.65,0.9c1.14,0.46,2.3,0.67,3.42,0.63
		c1.05-0.04,2.11-0.32,3.11-0.8c0.48-0.23,0.89-0.48,1.27-0.77c1.69-1.23,2.9-3.06,3.42-5.17c0.12-0.48,0.54-0.81,1.03-0.81
		c0.72,0,1.55-1.38,1.55-3.16c0-0.58-0.07-1.1-0.22-1.56c-0.26-0.89-0.74-1.5-1.21-1.59c-0.49-0.09-0.87-0.53-0.87-1.04v-1.08
		C28.56,13.21,28.54,13.15,28.49,13.1z" class="color2d2d2d svgShape"></path>
  <path fill="#595bd4" d="M9.62 13.62c.09-.48.34-.93.72-1.26.48-.41 1.12-.59 1.76-.48 5.34.82 9.2-3.35 9.25-3.39.23-.25.56-.37.9-.34.33.03.64.23.8.52.07.1 1.54 2.48 5.1 2.24.67-.04 1.32.2 1.8.65.48.46.75 1.08.75 1.75v.34c.32.19.6.44.88.74.35-1.04.54-2.17.49-3.43-.09-2.1-.79-4.13-2.05-5.86C27.72 1.87 23.47-1 16.33 3.6 16 3.81 15.58 3.82 15.24 3.64c-.02-.01-2.39-1.26-4.27-.43C9.85 3.71 9.06 4.9 8.62 6.73c-.4 2.14-.64 5.62-.02 7.77C8.91 14.14 9.25 13.83 9.62 13.62zM22.63 37.14c2.4-2.17 7.35-4.84 13.74 1.3h3.89c-.31-4.38-3.96-7.84-8.42-7.84h-5.79c-1.48 2.03-3.59 3.23-5.83 3.33-.01 0-.02.01-.04.01h-.6c-2.23-.12-4.16-1.33-5.39-3.34H8.44C3.79 30.6 0 34.38 0 39.04v15.13h17.34l.07-.55c.12-.96.24-1.91.35-2.88.1-.9.25-1.95.42-3 .14-.87.27-1.74.37-2.51C18.93 42.05 20.38 39.17 22.63 37.14z" class="color2d2d2d svgShape"></path>
  <path fill="#fe9526" d="M28.79 41.82c-2.61 0-4.73 2.12-4.73 4.73 0 2.61 2.12 4.73 4.73 4.73 2.61 0 4.73-2.12 4.73-4.73C33.53 43.94 31.4 41.82 28.79 41.82zM26.78 47.4h-1.01c-.47 0-.85-.38-.85-.85s.38-.85.85-.85h1.01c.47 0 .85.37.85.85C27.63 47.03 27.26 47.4 26.78 47.4zM29.64 49.57c0 .47-.38.85-.85.85-.47 0-.85-.38-.85-.85v-1.01c0-.47.37-.84.85-.84.47 0 .85.37.85.84V49.57zM29.64 44.54c0 .47-.37.85-.85.85-.47 0-.85-.37-.85-.85v-1.01c0-.47.38-.85.85-.85.47 0 .85.38.85.85V44.54zM32.66 46.55c0 .47-.38.85-.85.85H30.8c-.47 0-.85-.37-.85-.85 0-.47.37-.85.85-.85h1.01C32.28 45.71 32.66 46.08 32.66 46.55zM53.16 41.82c-2.61 0-4.73 2.12-4.73 4.73 0 2.61 2.12 4.73 4.73 4.73 2.62 0 4.74-2.12 4.74-4.73C57.9 43.94 55.78 41.82 53.16 41.82zM55.85 47.4h-1.84v1.84c0 .47-.37.85-.85.85-.47 0-.85-.38-.85-.85V47.4h-1.85c-.47 0-.85-.38-.85-.85s.38-.85.85-.85h1.85v-1.84c0-.47.38-.85.85-.85.47 0 .85.37.85.85v1.84h1.84c.47 0 .85.37.85.85C56.7 47.03 56.32 47.4 55.85 47.4z" class="colorff0000 svgShape"></path>
  <path fill="#fe9526" d="M62.69,55.47c-0.08-0.91-0.2-1.84-0.32-2.75c-0.09-0.59-0.16-1.19-0.23-1.78c-0.1-0.89-0.25-1.89-0.41-2.88
		c-0.14-0.89-0.29-1.78-0.37-2.57c-0.33-2.68-1.54-5.08-3.4-6.78c-3.35-3.02-7.08-2.5-11.12,1.54c-0.21,0.2-0.47,0.31-0.76,0.31
		H35.94c-0.29,0-0.56-0.11-0.76-0.31c-2.32-2.32-4.54-3.47-6.63-3.47c-1.56,0-3.06,0.64-4.49,1.93c-1.87,1.69-3.09,4.1-3.4,6.78
		c-0.1,0.79-0.23,1.68-0.37,2.58c-0.15,1.01-0.32,2.02-0.42,2.91c-0.11,0.98-0.23,1.93-0.34,2.9l-0.2,1.63
		c-0.53,4.38,1.09,6,1.11,6.01c1.1,1.05,2.36,1.44,3.87,1.22c1.46-0.22,2.8-1.02,3.8-2.25l6.62-8.2c0.21-0.24,0.51-0.4,0.83-0.4
		h10.9c0.32,0,0.63,0.15,0.82,0.4l6.62,8.2c1,1.23,2.35,2.03,3.8,2.25c1.52,0.22,2.77-0.16,3.85-1.21
		C61.56,61.53,63.03,59.81,62.69,55.47z M28.79,53.2c-3.67,0-6.64-2.98-6.64-6.64c0-3.67,2.98-6.64,6.64-6.64
		c3.67,0,6.64,2.98,6.64,6.64C35.44,50.22,32.46,53.2,28.79,53.2z M53.16,53.2c-3.66,0-6.64-2.98-6.64-6.64
		c0-3.67,2.99-6.64,6.64-6.64c3.67,0,6.64,2.98,6.64,6.64C59.8,50.22,56.83,53.2,53.16,53.2z" class="colorff0000 svgShape"></path>
</svg>
