<svg xmlns="http://www.w3.org/2000/svg" viewBox="0 0 64 64" id="html5">
  <path fill="#e04324" fill-rule="evenodd" d="m12.1,54.35c-.37-.11-.63-.43-.66-.81-.42-5.3-3.35-42.02-3.87-48.55-.02-.26.07-.51.24-.7.17-.19.42-.3.68-.3h47.05c.26,0,.5.11.68.3.17.19.26.44.24.7-.52,6.53-3.45,43.26-3.87,48.55-.03.38-.29.7-.66.81-3.16.9-17.57,5.01-19.65,5.61-.17.05-.34.05-.51,0-2.09-.6-16.49-4.71-19.65-5.61h0Z"></path>
  <polygon fill="#ef5925" fill-rule="evenodd" points="32 54.18 32.01 9.15 51.7 9.15 48.49 49.47 32 54.18 32 54.18"></polygon>
  <polygon fill="#e2e2e2" fill-rule="evenodd" points="47.51 14.15 16.49 14.15 18.5 33.02 39.51 33.02 38.84 41.08 31.98 42.7 24.88 41.03 24.6 36.01 18.52 36 19.09 45.81 31.99 49.25 44.56 45.82 46.51 27.01 24.5 27.01 23.95 20.16 46.51 20.16 47.51 14.15 47.51 14.15"></polygon>
  <path fill="#fff" fill-rule="evenodd" d="m32,27.01v6s7.5,0,7.5,0l-.67,8.06-6.83,1.62v6.55s12.56-3.42,12.56-3.42l1.95-18.81h-14.51Zm0-12.86v6s14.51,0,14.51,0l1-6h-15.51Z"></path>
</svg>
